<?xml version="1.0" encoding="UTF-8"?>
<svg id="Layer_2" xmlns="http://www.w3.org/2000/svg" viewBox="0 0 643.52 623.23">
  <defs>
    <style>.cls-1{fill:#163d73;}.cls-2{fill:#005c99;}.cls-3{fill:#59976a;}</style>
  </defs>
  <g id="Layer_2-2">
    <path class="cls-1"
      d="M29.12,508.84h57.03v20.87H0v-10.44l59.94-130.07H3.15v-21.11h85.18v10.43l-59.21,130.32Z" />
    <path class="cls-1"
      d="M170.11,529.71l-8.49-39.56h-34.95l-8.49,39.56h-22.33l36.64-161.62h24.27l36.64,161.62h-23.3ZM144.15,404.24l-13.35,66.25h26.69l-13.35-66.25Z" />
    <path class="cls-1"
      d="M283.2,529.71l-4.37-12.38c-5.58,10.44-16.99,16.02-31.55,16.02-28.15,0-41.98-19.66-41.98-44.41v-80.08c0-23.78,14.8-44.17,45.14-44.17s43.2,18.2,43.2,44.17v9.46h-21.84v-12.13c0-10.92-6.31-21.11-21.36-21.11s-22.08,10.68-22.08,21.6v84.45c0,11.16,6.79,21.84,22.08,21.84s22.33-10.68,22.33-21.84v-25h-21.6v-19.41h43.44v83h-11.41Z" />
    <path class="cls-1"
      d="M354.3,462.24h-13.83v67.46h-23.05v-161.62h46.59c26.21,0,38.1,13.1,38.1,36.16v20.63c0,16.5-7.77,30.09-24.51,34.95,0-.24,26.45,69.89,26.45,69.89h-25l-24.75-67.46ZM361.58,443.31c11.41,0,17.23-6.31,17.23-18.2v-21.36c0-9.22-3.64-15.77-14.56-15.77h-23.78v55.33h21.11Z" />
    <path class="cls-1"
      d="M423.22,529.71v-161.62h75.23v20.87h-52.42v46.11h37.86v19.9h-37.86v53.87h52.42v20.87h-75.23Z" />
    <path class="cls-1"
      d="M566.63,529.71h-48.05v-161.62h46.84c26.21,0,37.37,13.1,37.37,36.16v13.1c0,16.75-6.79,26.21-20.63,29.12,15.77,3.16,22.33,14.08,22.33,29.85v17.23c0,23.05-11.65,36.16-37.86,36.16ZM580.22,403.76c0-9.22-3.64-15.77-14.56-15.77h-24.03v50.96h21.36c11.41,0,17.23-6.31,17.23-18.2v-16.99ZM581.44,475.35c0-11.89-6.07-18.2-17.23-18.2h-22.57v52.66h25c10.92,0,14.8-6.55,14.8-15.53v-18.93Z" />
    <path class="cls-1"
      d="M13.49,611.27c-3.28,0-6.78-1.37-8.31-5.49l-.99,4.88H0v-50.75h6.32v19.66c1.52-2.97,4.42-5.18,8.23-5.18,5.33,0,8.08,4.42,8.08,10.36v16.08c0,6.4-3.66,10.44-9.14,10.44ZM16.38,586.2c0-4.34-1.68-6.25-4.8-6.25s-5.26,2.21-5.26,5.87v14.48c0,3.89,2.44,5.87,5.11,5.87,3.12,0,4.95-1.91,4.95-6.25v-13.72Z" />
    <path class="cls-1"
      d="M41,613.02c-1.6,6.33-3.2,10.21-9.75,10.21h-2.36v-5.11h1.83c3.12,0,3.81-1.07,4.42-3.35l.61-3.05-9.45-36.73h6.4l4.27,19.74,1.52,8,1.6-8,4.27-19.74h6.33l-9.68,38.03Z" />
    <path class="cls-1"
      d="M82.75,590.31h-7.54v20.35h-7.16v-50.75h14.71c8.23,0,11.89,4.42,11.89,11.74v7.01c0,7.16-3.66,11.66-11.89,11.66ZM87.4,571.42c0-3.35-1.22-5.26-4.57-5.26h-7.62v17.98h7.62c3.35,0,4.57-1.98,4.57-5.26v-7.47Z" />
    <path class="cls-1"
      d="M118.57,610.66l-2.67-12.42h-10.97l-2.67,12.42h-7.01l11.51-50.75h7.62l11.51,50.75h-7.32ZM110.41,571.26l-4.19,20.8h8.38l-4.19-20.8Z" />
    <path class="cls-1"
      d="M142.19,589.48h-4.34v21.18h-7.24v-50.75h14.63c8.23,0,11.96,4.12,11.96,11.35v6.48c0,5.18-2.44,9.45-7.7,10.97,0-.08,8.31,21.95,8.31,21.95h-7.85l-7.77-21.18ZM144.47,583.53c3.58,0,5.41-1.98,5.41-5.71v-6.71c0-2.9-1.14-4.95-4.57-4.95h-7.47v17.37h6.63Z" />
    <path class="cls-1" d="M163.83,610.66v-50.75h7.16v44.2h16.08v6.55h-23.24Z" />
    <path class="cls-1"
      d="M212.59,610.66l-2.67-12.42h-10.97l-2.67,12.42h-7.01l11.51-50.75h7.62l11.51,50.75h-7.32ZM204.44,571.26l-4.19,20.8h8.38l-4.19-20.8Z" />
    <path class="cls-1"
      d="M256.03,610.66v-39.55l-2.06,9.68-6.93,29.87h-7.09l-6.78-29.87-2.13-9.68v39.55h-6.4v-50.75h10.06l6.93,31.7,2.06,9.68,2.06-9.75,6.78-31.62h10.06v50.75h-6.55Z" />
    <path class="cls-1"
      d="M270.81,610.66v-50.75h23.62v6.55h-16.46v14.48h11.89v6.25h-11.89v16.92h16.46v6.55h-23.62Z" />
    <path class="cls-1" d="M315.31,566.54v44.12h-7.24v-44.12h-10.44v-6.63h28.04v6.63h-10.36Z" />
    <path class="cls-1"
      d="M330.77,610.66v-50.75h23.62v6.55h-16.46v14.48h11.89v6.25h-11.89v16.92h16.46v6.55h-23.62Z" />
    <path class="cls-1"
      d="M372.3,589.48h-4.34v21.18h-7.24v-50.75h14.63c8.23,0,11.96,4.12,11.96,11.35v6.48c0,5.18-2.44,9.45-7.7,10.97,0-.08,8.31,21.95,8.31,21.95h-7.85l-7.77-21.18ZM374.59,583.53c3.58,0,5.41-1.98,5.41-5.71v-6.71c0-2.9-1.14-4.95-4.57-4.95h-7.47v17.37h6.63Z" />
    <rect class="cls-2" width="643.52" height="153.83" />
    <rect class="cls-3" y="186.32" width="409.49" height="153.83" />
  </g>
</svg>
