<?xml version="1.0" encoding="UTF-8"?>
<svg id="Layer_2" xmlns="http://www.w3.org/2000/svg" version="1.1" viewBox="0 0 643.5 623.2">
  <!-- Generator: Adobe Illustrator 29.3.1, SVG Export Plug-In . SVG Version: 2.1.0 Build 151)  -->
  <defs>
    <style>
      .st0 {
        fill: #0166fe;
      }

      .st1 {
        fill: #163d73;
      }
    </style>
  </defs>
  <g id="Layer_2-2">
    <path class="st1" d="M29.1,508.8h57v20.9H0v-10.4l59.9-130.1H3.2v-21.1h85.2v10.4l-59.2,130.3h0Z"/>
    <path class="st1" d="M170.1,529.7l-8.5-39.6h-34.9l-8.5,39.6h-22.3l36.6-161.6h24.3l36.6,161.6h-23.3,0ZM144.1,404.2l-13.4,66.2h26.7l-13.4-66.2h0Z"/>
    <path class="st1" d="M283.2,529.7l-4.4-12.4c-5.6,10.4-17,16-31.6,16-28.1,0-42-19.7-42-44.4v-80.1c0-23.8,14.8-44.2,45.1-44.2s43.2,18.2,43.2,44.2v9.5h-21.8v-12.1c0-10.9-6.3-21.1-21.4-21.1s-22.1,10.7-22.1,21.6v84.4c0,11.2,6.8,21.8,22.1,21.8s22.3-10.7,22.3-21.8v-25h-21.6v-19.4h43.4v83h-11.4Z"/>
    <path class="st1" d="M354.3,462.2h-13.8v67.5h-23v-161.6h46.6c26.2,0,38.1,13.1,38.1,36.2v20.6c0,16.5-7.8,30.1-24.5,35,0-.2,26.5,69.9,26.5,69.9h-25l-24.8-67.5h0ZM361.6,443.3c11.4,0,17.2-6.3,17.2-18.2v-21.4c0-9.2-3.6-15.8-14.6-15.8h-23.8v55.3h21.1,0Z"/>
    <path class="st1" d="M423.2,529.7v-161.6h75.2v20.9h-52.4v46.1h37.9v19.9h-37.9v53.9h52.4v20.9h-75.2Z"/>
    <path class="st1" d="M566.6,529.7h-48v-161.6h46.8c26.2,0,37.4,13.1,37.4,36.2v13.1c0,16.8-6.8,26.2-20.6,29.1,15.8,3.2,22.3,14.1,22.3,29.9v17.2c0,23-11.7,36.2-37.9,36.2h0ZM580.2,403.8c0-9.2-3.6-15.8-14.6-15.8h-24v51h21.4c11.4,0,17.2-6.3,17.2-18.2v-17h0ZM581.4,475.4c0-11.9-6.1-18.2-17.2-18.2h-22.6v52.7h25c10.9,0,14.8-6.5,14.8-15.5v-18.9Z"/>
    <path class="st1" d="M13.5,611.3c-3.3,0-6.8-1.4-8.3-5.5l-1,4.9H0v-50.8h6.3v19.7c1.5-3,4.4-5.2,8.2-5.2s8.1,4.4,8.1,10.4v16.1c0,6.4-3.7,10.4-9.1,10.4ZM16.4,586.2c0-4.3-1.7-6.2-4.8-6.2s-5.3,2.2-5.3,5.9v14.5c0,3.9,2.4,5.9,5.1,5.9s4.9-1.9,4.9-6.2c0,0,0-13.7,0-13.7Z"/>
    <path class="st1" d="M41,613c-1.6,6.3-3.2,10.2-9.8,10.2h-2.4v-5.1h1.8c3.1,0,3.8-1.1,4.4-3.3l.6-3-9.5-36.7h6.4l4.3,19.7,1.5,8,1.6-8,4.3-19.7h6.3l-9.7,38h0Z"/>
    <path class="st1" d="M82.8,590.3h-7.5v20.3h-7.2v-50.8h14.7c8.2,0,11.9,4.4,11.9,11.7v7c0,7.2-3.7,11.7-11.9,11.7h0ZM87.4,571.4c0-3.3-1.2-5.3-4.6-5.3h-7.6v18h7.6c3.3,0,4.6-2,4.6-5.3v-7.5h0Z"/>
    <path class="st1" d="M118.6,610.7l-2.7-12.4h-11l-2.7,12.4h-7l11.5-50.8h7.6l11.5,50.8h-7.3ZM110.4,571.3l-4.2,20.8h8.4s-4.2-20.8-4.2-20.8Z"/>
    <path class="st1" d="M142.2,589.5h-4.3v21.2h-7.2v-50.8h14.6c8.2,0,12,4.1,12,11.3v6.5c0,5.2-2.4,9.5-7.7,11,0,0,8.3,22,8.3,22h-7.9l-7.8-21.2h0ZM144.5,583.5c3.6,0,5.4-2,5.4-5.7v-6.7c0-2.9-1.1-5-4.6-5h-7.5v17.4h6.6Z"/>
    <path class="st1" d="M163.8,610.7v-50.8h7.2v44.2h16.1v6.5h-23.2Z"/>
    <path class="st1" d="M212.6,610.7l-2.7-12.4h-11l-2.7,12.4h-7l11.5-50.8h7.6l11.5,50.8h-7.3,0ZM204.4,571.3l-4.2,20.8h8.4l-4.2-20.8Z"/>
    <path class="st1" d="M256,610.7v-39.5l-2.1,9.7-6.9,29.9h-7.1l-6.8-29.9-2.1-9.7v39.5h-6.4v-50.8h10.1l6.9,31.7,2.1,9.7,2.1-9.8,6.8-31.6h10.1v50.8h-6.6Z"/>
    <path class="st1" d="M270.8,610.7v-50.8h23.6v6.5h-16.5v14.5h11.9v6.2h-11.9v16.9h16.5v6.5h-23.6Z"/>
    <path class="st1" d="M315.3,566.5v44.1h-7.2v-44.1h-10.4v-6.6h28v6.6h-10.4Z"/>
    <path class="st1" d="M330.8,610.7v-50.8h23.6v6.5h-16.5v14.5h11.9v6.2h-11.9v16.9h16.5v6.5h-23.6Z"/>
    <path class="st1" d="M372.3,589.5h-4.3v21.2h-7.2v-50.8h14.6c8.2,0,12,4.1,12,11.3v6.5c0,5.2-2.4,9.5-7.7,11,0,0,8.3,22,8.3,22h-7.9l-7.8-21.2h0ZM374.6,583.5c3.6,0,5.4-2,5.4-5.7v-6.7c0-2.9-1.1-5-4.6-5h-7.5v17.4h6.6Z"/>
    <rect class="st1" y="0" width="643.5" height="153.8"/>
    <rect class="st0" y="186.3" width="409.5" height="153.8"/>
  </g>
</svg>
