<svg xmlns="http://www.w3.org/2000/svg" viewBox="147.47 147.46 905.07 905.07">
  <path d="M600.04 187.46c-227.86-.008-412.58 184.72-412.57 412.57.02 227.84 184.73 412.51 412.57 412.5 227.82-.023 412.48-184.69 412.5-412.5.012-227.83-184.66-412.55-412.5-412.57zm0 70.824c188.72.02 341.68 153.03 341.68 341.75-.016 188.7-152.97 341.66-341.68 341.68-188.72.008-341.73-152.96-341.75-341.68-.008-188.73 153.01-341.75 341.75-341.75zm-135.46 208.38v266.68h70.863v-266.68zm199.99 0v266.68h70.863v-266.68z"/>
</svg>
