<svg xmlns="http://www.w3.org/2000/svg" fill="#333" viewBox="0 0 30 30">
  <path d="M29.19 6.084h-5.68V.804A.837.837 0 0 0 22.7 0H.81C.4 0 0 .354 0 .804v17.845c0 .444.362.804.809.804H6.49v5.28c0 .444.362.804.809.804h8.377l1.833 3.994c.287.624 1.184.627 1.472 0l1.833-3.994h8.377c.447 0 .809-.36.809-.804V6.888a.808.808 0 0 0-.81-.804Zm-8.75-4.477-8.685 7.08-8.686-7.08h17.37Zm-18.823.896 9.625 7.846a.814.814 0 0 0 1.026 0l9.625-7.846v15.344l-20.276-.002V2.503ZM28.381 23.93h-8.088a.808.808 0 0 0-.735.47l-1.314 2.861-1.314-2.86a.808.808 0 0 0-.736-.471H8.106v-4.479h14.595c.446 0 .808-.36.808-.803V7.69h4.873l-.001 16.24Z" />
</svg>
