<svg xmlns="http://www.w3.org/2000/svg" fill="#333" viewBox="0 0 27 25">
  <path d="M4.384 1.066h.63V.793c0-1.057 1.588-1.057 1.588 0v.273h3.54V.793c0-1.057 1.588-1.057 1.588 0v.273h3.54V.793c0-1.057 1.588-1.057 1.588 0v.273h3.54V.793c0-1.057 1.589-1.057 1.589 0v.273h.63C25.03 1.066 27 3.059 27 5.498v15.068C27 23.006 25.029 25 22.616 25H4.384C1.97 25 0 23.006 0 20.566V5.498C0 3.06 1.971 1.066 4.384 1.066Zm2.218 1.606v.948c0 1.057-1.588 1.057-1.588 0v-.948c-1.008 0-1.778-.005-2.604.83-.848.859-.821 1.662-.821 2.703h23.823c0-1.04.027-1.844-.822-2.703-.826-.835-1.596-.83-2.604-.83v.948c0 1.057-1.588 1.057-1.588 0v-.948h-3.541v.948c0 1.057-1.588 1.057-1.588 0v-.948h-3.54v.948c0 1.057-1.587 1.057-1.587 0v-.948h-3.54Zm18.81 5.14H1.587v12.754c0 1.553 1.26 2.827 2.795 2.827h18.234c1.535 0 2.795-1.274 2.795-2.827V7.812Zm-4.16 3.822h.507c1.046 0 1.046-1.606 0-1.606h-.506c-1.045 0-1.045 1.606 0 1.606Zm-16.01 8.868h.506c1.045 0 1.045-1.606 0-1.606H5.24c-1.046 0-1.046 1.606 0 1.606Zm0-2.956h.506c1.045 0 1.045-1.606 0-1.606H5.24c-1.046 0-1.046 1.606 0 1.606Zm0-2.956h.506c1.045 0 1.045-1.606 0-1.606H5.24c-1.046 0-1.046 1.606 0 1.606Zm0-2.956h.506c1.045 0 1.045-1.606 0-1.606H5.24c-1.046 0-1.046 1.606 0 1.606Zm4.001 8.869h.507c1.045 0 1.045-1.607 0-1.607h-.507c-1.045 0-1.045 1.607 0 1.607Zm0-2.956h.507c1.045 0 1.045-1.607 0-1.607h-.507c-1.045 0-1.045 1.607 0 1.607Zm0-2.957h.507c1.045 0 1.045-1.605 0-1.605h-.507c-1.045 0-1.045 1.606 0 1.606Zm0-2.956h.507c1.045 0 1.045-1.606 0-1.606h-.507c-1.045 0-1.045 1.606 0 1.606Zm4.004 8.869h.506c1.045 0 1.045-1.606 0-1.606h-.506c-1.046 0-1.046 1.606 0 1.606Zm0-2.956h.506c1.045 0 1.045-1.606 0-1.606h-.506c-1.046 0-1.046 1.606 0 1.606Zm0-2.956h.506c1.045 0 1.045-1.606 0-1.606h-.506c-1.046 0-1.046 1.606 0 1.606Zm0-2.956h.506c1.045 0 1.045-1.606 0-1.606h-.506c-1.046 0-1.046 1.606 0 1.606Zm4.003 8.868h.506c1.046 0 1.046-1.606 0-1.606h-.506c-1.045 0-1.045 1.606 0 1.606Zm0-2.956h.506c1.046 0 1.046-1.606 0-1.606h-.506c-1.045 0-1.045 1.606 0 1.606Zm0-2.956h.506c1.046 0 1.046-1.606 0-1.606h-.506c-1.045 0-1.045 1.606 0 1.606Zm0-2.956h.506c1.046 0 1.046-1.606 0-1.606h-.506c-1.045 0-1.045 1.606 0 1.606Zm4.003 8.868h.506c1.046 0 1.046-1.606 0-1.606h-.506c-1.045 0-1.045 1.606 0 1.606Zm0-2.956h.506c1.046 0 1.046-1.606 0-1.606h-.506c-1.045 0-1.045 1.606 0 1.606Zm0-2.956h.506c1.046 0 1.046-1.606 0-1.606h-.506c-1.045 0-1.045 1.606 0 1.606Z" />
</svg>
