<svg xmlns="http://www.w3.org/2000/svg" fill="#333" viewBox="0 0 28 28">
  <path stroke="#fff" stroke-width=".5" d="M1 8.341a3.54 3.54 0 0 0 3.537 3.537h3.805a3.54 3.54 0 0 0 3.536-3.537V4.537A3.54 3.54 0 0 0 8.342 1H4.537A3.54 3.54 0 0 0 1 4.537V8.34Zm2.512-3.804a1.04 1.04 0 0 1 1.025-1.026h3.805c.555 0 1.025.47 1.025 1.026V8.34a1.04 1.04 0 0 1-1.025 1.026H4.537A1.04 1.04 0 0 1 3.512 8.34V4.537Zm13.762 6.554c.473.473 1.302.473 1.774 0l2.88-2.879 2.879 2.88c.472.472 1.301.472 1.774 0a1.27 1.27 0 0 0 0-1.775L23.7 6.438l2.88-2.88a1.253 1.253 0 0 0-.888-2.141c-.335 0-.65.129-.888.368l-2.88 2.879-2.879-2.88a1.244 1.244 0 0 0-.887-.367 1.253 1.253 0 0 0-.888 2.142l2.88 2.88-2.88 2.878a1.254 1.254 0 0 0 0 1.774h.003ZM16.069 23.41a3.54 3.54 0 0 0 3.537 3.537h3.804a3.54 3.54 0 0 0 3.537-3.537v-3.805a3.54 3.54 0 0 0-3.537-3.536h-3.805a3.54 3.54 0 0 0-3.536 3.537v3.804Zm2.511-3.805c0-.555.47-1.025 1.026-1.025h3.804c.556 0 1.026.47 1.026 1.026v3.804a1.04 1.04 0 0 1-1.026 1.025h-3.805a1.039 1.039 0 0 1-1.025-1.025v-3.805Zm-7.902-2.755a1.244 1.244 0 0 0-.888-.368c-.335 0-.649.13-.888.368l-2.879 2.88-2.88-2.88a1.244 1.244 0 0 0-.887-.368 1.253 1.253 0 0 0-.888 2.142l2.88 2.88-2.88 2.88c-.49.49-.49 1.284 0 1.773a1.27 1.27 0 0 0 1.774 0l2.88-2.88 2.879 2.88c.472.473 1.301.473 1.774 0a1.27 1.27 0 0 0 0-1.774l-2.88-2.88 2.88-2.879c.49-.49.49-1.285 0-1.774h.003Z" />
</svg>
