<svg xmlns="http://www.w3.org/2000/svg" fill="#333" viewBox="0 0 32 32">
  <path stroke="#fff" d="M2.535 15.973c-.89 0-1.62.723-1.527 1.609.748 7.026 6.33 12.61 13.356 13.355.885.094 1.609-.637 1.609-1.527 0-.89-.726-1.6-1.608-1.721A11.83 11.83 0 0 1 4.257 17.582c-.12-.884-.83-1.61-1.722-1.61Zm19.565 0c.892 0 1.631-.731 1.448-1.601a7.742 7.742 0 0 0-15.315 1.6 7.743 7.743 0 0 0 6.139 7.574c.871.183 1.6-.556 1.6-1.446 0-.89-.744-1.585-1.577-1.896a4.515 4.515 0 0 1 1.577-8.746 4.52 4.52 0 0 1 4.233 2.936c.311.835 1.005 1.579 1.895 1.579Zm5.59-1.609c.12.883.83 1.609 1.72 1.609.892 0 1.622-.724 1.529-1.61-.748-7.026-6.33-12.609-13.356-13.355-.885-.094-1.61.637-1.61 1.527 0 .89.727 1.6 1.608 1.722A11.831 11.831 0 0 1 27.69 14.364Z" />
  <path stroke="#fff" d="M30.577 30.566a1.56 1.56 0 0 1-2.208 0l-6.308-6.307v.546a1.612 1.612 0 1 1-3.225 0v-4.3l.002-.06a1.559 1.559 0 0 1 1.63-1.618c.021-.002.045-.002.067-.002h4.3a1.612 1.612 0 1 1 0 3.225h-.563l6.305 6.305c.61.61.61 1.6 0 2.21Z" />
</svg>
